<svg viewBox="0 0 200 200" fill="none" xmlns="http://www.w3.org/2000/svg">
<g opacity="0.33">
<path fill-rule="evenodd" clip-rule="evenodd" d="M200 200V199L199 200H200Z" fill="#94A38F"/>
<path fill-rule="evenodd" clip-rule="evenodd" d="M0 0V1L1 0H0Z" fill="#94A38F"/>
<path d="M157.176 36.8599C153.676 36.8906 151.142 37.8439 150.625 38.0445C150.023 38.2778 147.731 39.2042 145.332 41.2684C143.433 42.9019 142.342 44.4945 142.027 44.9682C140.755 46.884 140.103 48.6906 139.755 49.9353C138.528 47.6636 136.077 46.4807 133.839 46.9722C131.389 47.5098 130.321 49.8068 130.201 50.0757C130.607 50.0703 131.236 50.1155 131.883 50.4332C134.394 51.6667 134.135 55.5219 135.294 58.313C136.215 60.5283 138.51 63.2318 144.659 65.1421C145.989 61.8268 148.901 55.8305 154.901 50.3418C160.539 45.1849 166.343 42.8186 169.686 41.733C168.565 40.6286 166.63 39.0225 163.817 37.9525C160.919 36.8503 158.484 36.8481 157.176 36.8599ZM155.283 44.03C154.922 43.6455 154.941 43.0417 155.325 42.6804C155.709 42.319 156.312 42.3379 156.673 42.7218C156.481 42.7917 156.172 42.9315 155.868 43.2094C155.538 43.5116 155.367 43.8375 155.283 44.03ZM158.2 41.4163C157.953 40.9501 158.131 40.3726 158.596 40.1253C159.062 39.8785 159.638 40.0559 159.885 40.5221C159.682 40.5388 159.347 40.592 158.981 40.7797C158.583 40.984 158.331 41.2528 158.2 41.4163ZM157.246 45.9382C156.951 45.5016 157.066 44.908 157.502 44.6123C157.938 44.3171 158.531 44.4316 158.826 44.8682C158.626 44.9064 158.298 44.9951 157.954 45.2209C157.58 45.4667 157.359 45.7618 157.246 45.9382ZM160.214 43.3304C160.024 42.8384 160.269 42.2857 160.76 42.0959C161.252 41.9061 161.804 42.1513 161.993 42.6433C161.789 42.6357 161.45 42.6486 161.065 42.7911C160.645 42.9465 160.363 43.1836 160.214 43.3304ZM161.949 40.5113C161.825 39.9989 162.138 39.4828 162.65 39.358C163.162 39.2333 163.677 39.5473 163.802 40.0597C163.6 40.0258 163.263 39.9946 162.862 40.0866C162.426 40.1866 162.117 40.3855 161.949 40.5113Z" fill="#94A38F"/>
<path d="M165 34L199 0H200V1L166 35L165 34Z" fill="#94A38F"/>
<path d="M57.1757 136.86C53.6761 136.891 51.142 137.844 50.6248 138.044C50.0228 138.278 47.7315 139.204 45.3321 141.268C43.4333 142.902 42.3415 144.495 42.0274 144.968C40.7547 146.884 40.1028 148.691 39.7553 149.935C38.5283 147.664 36.0774 146.481 33.8392 146.972C31.3888 147.51 30.3207 149.807 30.201 150.076C30.6069 150.07 31.2363 150.115 31.8829 150.433C34.3944 151.667 34.135 155.522 35.2944 158.313C36.2149 160.528 38.51 163.232 44.6593 165.142C45.9889 161.827 48.9005 155.831 54.901 150.342C60.539 145.185 66.3435 142.819 69.6858 141.733C68.5645 140.629 66.6297 139.022 63.8174 137.952C60.9187 136.85 58.4844 136.848 57.1757 136.86ZM55.2833 144.03C54.9225 143.646 54.9413 143.042 55.3247 142.68C55.7086 142.319 56.3117 142.338 56.6726 142.722C56.4809 142.792 56.1721 142.931 55.8681 143.209C55.5379 143.512 55.3671 143.837 55.2833 144.03ZM58.1998 141.416C57.9533 140.95 58.1305 140.373 58.5961 140.125C59.0617 139.878 59.6385 140.056 59.8855 140.522C59.6819 140.539 59.3474 140.592 58.9812 140.78C58.5827 140.984 58.3308 141.253 58.1998 141.416ZM57.2461 145.938C56.9513 145.502 57.0657 144.908 57.5017 144.612C57.9378 144.317 58.5306 144.432 58.826 144.868C58.6257 144.906 58.2981 144.995 57.9544 145.221C57.5801 145.467 57.3594 145.762 57.2461 145.938ZM60.2136 143.33C60.024 142.838 60.2689 142.286 60.7603 142.096C61.2516 141.906 61.8036 142.151 61.9932 142.643C61.7892 142.636 61.4503 142.649 61.0647 142.791C60.6448 142.947 60.3634 143.184 60.2136 143.33ZM61.9492 140.511C61.8246 139.999 62.1382 139.483 62.65 139.358C63.1617 139.233 63.6773 139.547 63.8018 140.06C63.6005 140.026 63.2632 139.995 62.8621 140.087C62.426 140.187 62.1167 140.386 61.9492 140.511Z" fill="#94A38F"/>
<path d="M0 199L34 165L35 166L1 200H0V199Z" fill="#94A38F"/>
<path d="M135 66L134 65L65 134L66 135L135 66Z" fill="#94A38F"/>
<path d="M65 166L66 165L101 200H99L65 166Z" fill="#94A38F"/>
<path d="M135 34L134 35L99 0H101L135 34Z" fill="#94A38F"/>
<path d="M166 65L200 99V101L165 66L166 65Z" fill="#94A38F"/>
<path d="M35 134L34 135L0 101V99L35 134Z" fill="#94A38F"/>
</g>
</svg>
