<svg viewBox="0 0 24 24" fill="none" xmlns="http://www.w3.org/2000/svg">
<g id="weather=partlyCloudyDay">
<path id="Vector" d="M13.002 8.00698C16.171 8.00698 17.968 10.104 18.229 12.637H18.309C18.7933 12.6363 19.273 12.7311 19.7206 12.9158C20.1682 13.1006 20.5751 13.3717 20.918 13.7137C21.2608 14.0557 21.5329 14.4619 21.7188 14.9091C21.9046 15.3563 22.0005 15.8357 22.001 16.32C22.0004 16.8042 21.9044 17.2835 21.7185 17.7306C21.5326 18.1776 21.2604 18.5837 20.9176 18.9256C20.5748 19.2675 20.1679 19.5386 19.7204 19.7232C19.2728 19.9079 18.7932 20.0026 18.309 20.002H7.69503C7.21085 20.0026 6.73128 19.9079 6.2837 19.7232C5.83612 19.5386 5.4293 19.2675 5.08647 18.9256C4.74363 18.5837 4.4715 18.1776 4.2856 17.7306C4.09971 17.2835 4.00369 16.8042 4.00303 16.32C4.00356 15.8357 4.09948 15.3563 4.28532 14.9091C4.47115 14.4619 4.74327 14.0557 5.08611 13.7137C5.42896 13.3717 5.83583 13.1006 6.28347 12.9158C6.73111 12.7311 7.21077 12.6363 7.69503 12.637H7.77503C8.03803 10.087 9.83403 8.00698 13.002 8.00698ZM4.36803 12.162C4.43749 12.3296 4.44384 12.5167 4.38593 12.6886C4.32801 12.8605 4.20974 13.0056 4.05303 13.097L3.96203 13.142L3.03503 13.526C2.85968 13.5975 2.66378 13.5999 2.48666 13.533C2.30954 13.466 2.16431 13.3345 2.08013 13.1649C1.99596 12.9952 1.97906 12.8 2.03283 12.6185C2.0866 12.4369 2.20706 12.2824 2.37003 12.186L2.46103 12.14L3.38803 11.757C3.5717 11.6808 3.77811 11.6806 3.96188 11.7566C4.14565 11.8325 4.29174 11.9784 4.36803 12.162ZM10.855 7.32898L10.683 7.38698C8.89903 8.01698 7.62103 9.39198 7.06803 11.21L6.99803 11.46L6.94003 11.698L6.73404 11.737C6.13545 11.8616 5.56772 12.1044 5.06403 12.451C4.6057 11.6632 4.4345 10.741 4.57957 9.84118C4.72463 8.94139 5.17699 8.11967 5.85968 7.51586C6.54236 6.91204 7.41318 6.56343 8.32395 6.52936C9.23471 6.49529 10.1291 6.77786 10.855 7.32898ZM2.94003 7.35998L3.04503 7.39498L3.97203 7.77898C4.14616 7.85197 4.28635 7.98795 4.36461 8.15977C4.44288 8.33159 4.45346 8.5266 4.39425 8.70588C4.33504 8.88516 4.21039 9.03551 4.04518 9.12692C3.87998 9.21832 3.68638 9.24406 3.50303 9.19898L3.40003 9.16598L2.47303 8.78198C2.29891 8.70899 2.15872 8.57301 2.08046 8.40119C2.00219 8.22937 1.99161 8.03436 2.05082 7.85508C2.11003 7.6758 2.23468 7.52545 2.39989 7.43405C2.56509 7.34264 2.75869 7.31691 2.94203 7.36198M6.75703 4.37598L6.80203 4.46698L7.18603 5.39398C7.25751 5.56934 7.26 5.76524 7.19302 5.94236C7.12604 6.11948 6.99454 6.2647 6.82491 6.34888C6.65529 6.43306 6.4601 6.44996 6.27854 6.39619C6.09697 6.34242 5.94246 6.22195 5.84603 6.05898L5.80003 5.96798L5.41703 5.04098C5.34556 4.86562 5.34307 4.66972 5.41005 4.4926C5.47703 4.31548 5.60853 4.17026 5.77816 4.08608C5.94778 4.0019 6.14297 3.985 6.32453 4.03877C6.5061 4.09255 6.66061 4.21301 6.75703 4.37598ZM11.111 4.05698C11.2771 4.12589 11.4128 4.25214 11.4936 4.41274C11.5743 4.57334 11.5947 4.75761 11.551 4.93198L11.516 5.03698L11.133 5.96398C11.0612 6.13977 10.9253 6.28175 10.7528 6.36126C10.5803 6.44076 10.3841 6.45188 10.2038 6.39235C10.0234 6.33283 9.87235 6.2071 9.78109 6.04055C9.68983 5.87399 9.66515 5.67902 9.71203 5.49498L9.74703 5.38898L10.131 4.46298C10.1687 4.37197 10.224 4.28927 10.2936 4.21961C10.3632 4.14995 10.4459 4.09469 10.5369 4.05699C10.6279 4.01928 10.7255 3.99988 10.824 3.99988C10.9225 3.99988 11.02 4.01928 11.111 4.05698Z" fill="currentColor"/>
</g>
</svg>
