<svg viewBox="0 0 24 24" fill="none" xmlns="http://www.w3.org/2000/svg">
<g id="weather=partlyCloudyNight">
<path id="Vector" d="M13.002 8.01294C16.17 8.01294 17.968 10.1099 18.229 12.6429H18.309C18.7933 12.6423 19.2729 12.737 19.7206 12.9218C20.1682 13.1065 20.5751 13.3776 20.9179 13.7197C21.2608 14.0617 21.5329 14.4679 21.7187 14.9151C21.9046 15.3623 22.0005 15.8417 22.001 16.3259C22.0003 16.8101 21.9043 17.2894 21.7184 17.7365C21.5325 18.1836 21.2604 18.5897 20.9176 18.9316C20.5747 19.2735 20.1679 19.5445 19.7203 19.7292C19.2728 19.9139 18.7932 20.0086 18.309 20.0079H7.694C7.20982 20.0086 6.73024 19.9139 6.28266 19.7292C5.83509 19.5445 5.42827 19.2735 5.08543 18.9316C4.7426 18.5897 4.47046 18.1836 4.28457 17.7365C4.09867 17.2894 4.00266 16.8101 4.002 16.3259C4.00252 15.8417 4.09844 15.3623 4.28428 14.9151C4.47012 14.4679 4.74223 14.0617 5.08508 13.7197C5.42793 13.3776 5.83479 13.1065 6.28243 12.9218C6.73008 12.737 7.20973 12.6423 7.694 12.6429H7.774C8.037 10.0929 9.834 8.01294 13.002 8.01294ZM6.589 4.00495C7.38593 4.048 8.16138 4.27896 8.852 4.67894C9.86586 5.26269 10.6461 6.1797 11.06 7.27395C9.076 7.83595 7.656 9.27495 7.066 11.2199L6.997 11.4659L6.939 11.7039L6.733 11.7419C5.60654 11.9806 4.60795 12.6269 3.929 13.5569C3.21018 13.1761 2.59376 12.6276 2.132 11.9579C2.06676 11.8632 2.02418 11.7548 2.00753 11.641C1.99089 11.5272 2.00063 11.4112 2.03601 11.3017C2.07138 11.1923 2.13145 11.0925 2.21156 11.01C2.29166 10.9275 2.38967 10.8645 2.498 10.8259C4.141 10.2379 5.025 9.57594 5.532 8.60994C6.084 7.55494 6.186 6.43595 5.819 4.93295C5.79099 4.81908 5.79007 4.70023 5.81631 4.58594C5.84255 4.47165 5.89522 4.36511 5.9701 4.27487C6.04498 4.18463 6.13997 4.1132 6.24746 4.06632C6.35494 4.01945 6.47192 3.99842 6.589 4.00495Z" fill="currentColor"/>
</g>
</svg>
