<svg viewBox="0 0 24 24" fill="none" xmlns="http://www.w3.org/2000/svg">
<g id="weather=clearNight">
<path id="Vector" d="M20.026 17.001C17.264 21.785 11.147 23.424 6.363 20.662C5.07739 19.9202 3.97301 18.9016 3.13 17.68C3.06474 17.5853 3.02211 17.477 3.0054 17.3632C2.98869 17.2495 2.99835 17.1334 3.03363 17.024C3.0689 16.9146 3.12885 16.8148 3.20885 16.7323C3.28885 16.6497 3.38675 16.5866 3.495 16.548C7.262 15.2 9.28 13.638 10.451 11.402C11.684 9.04896 12.002 6.47196 11.14 2.93896C11.1122 2.82524 11.1114 2.7066 11.1377 2.59253C11.164 2.47845 11.2166 2.37211 11.2913 2.28201C11.3661 2.19192 11.4608 2.12057 11.5681 2.07367C11.6754 2.02678 11.7921 2.00564 11.909 2.01196C13.4786 2.0964 15.0059 2.55113 16.366 3.33896C21.15 6.10096 22.789 12.218 20.026 17.001Z" fill="currentColor"/>
</g>
</svg>
