<svg viewBox="0 0 16 16" fill="none" xmlns="http://www.w3.org/2000/svg">
<path d="M14.2227 1.64005C14.4874 1.89871 14.6694 2.23071 14.7427 2.59338C14.8284 2.95249 14.8028 3.32915 14.6694 3.67338L11.236 13.58C11.1456 13.8607 10.9877 14.1148 10.776 14.32C10.6918 14.4108 10.5953 14.4893 10.4894 14.5534C10.2294 14.7276 9.93119 14.8363 9.62012 14.8703C9.30905 14.9043 8.99437 14.8625 8.70294 14.7486C8.4115 14.6346 8.15196 14.4518 7.94644 14.2159C7.74093 13.9799 7.59555 13.6977 7.52271 13.3934L6.88937 9.52005C6.83803 9.39232 6.76086 9.27657 6.66271 9.18005C6.55932 9.07278 6.4311 8.99264 6.28938 8.94671L2.66938 8.32671C2.25913 8.22421 1.89381 7.99002 1.62937 7.66005C1.37609 7.3396 1.22925 6.94802 1.20937 6.54005C1.19278 6.13368 1.30475 5.73243 1.52937 5.39338C1.75784 5.05163 2.08607 4.78859 2.46937 4.64005L12.196 1.20005C12.5406 1.07819 12.9124 1.0551 13.2694 1.13338C13.6288 1.20832 13.9595 1.38406 14.2227 1.64005Z" fill="currentColor"/>
</svg>
