<svg viewBox="0 0 16 16" fill="none" xmlns="http://www.w3.org/2000/svg">
<path d="M1.77743 1.64005C1.51277 1.89871 1.33076 2.23071 1.25743 2.59338C1.17177 2.95249 1.19735 3.32915 1.33077 3.67338L4.7641 13.58C4.85452 13.8607 5.01248 14.1148 5.2241 14.32C5.30836 14.4108 5.40484 14.4893 5.51077 14.5534C5.77072 14.7276 6.06895 14.8363 6.38002 14.8703C6.69109 14.9043 7.00577 14.8625 7.2972 14.7486C7.58864 14.6346 7.84818 14.4518 8.0537 14.2159C8.25921 13.9799 8.40459 13.6977 8.47743 13.3934L9.11077 9.52005C9.16211 9.39232 9.23928 9.27657 9.33743 9.18005C9.44082 9.07278 9.56904 8.99264 9.71077 8.94671L13.3308 8.32671C13.741 8.22421 14.1063 7.99002 14.3708 7.66005C14.624 7.3396 14.7709 6.94802 14.7908 6.54005C14.8074 6.13368 14.6954 5.73243 14.4708 5.39338C14.2423 5.05163 13.9141 4.78859 13.5308 4.64005L3.8041 1.20005C3.45953 1.07819 3.08776 1.0551 2.73077 1.13338C2.37132 1.20832 2.04065 1.38406 1.77743 1.64005Z" fill="currentColor"/>
</svg>
