<svg viewBox="0 0 16 16" fill="none" xmlns="http://www.w3.org/2000/svg">
<path d="M14.2227 14.36C14.4874 14.1013 14.6694 13.7693 14.7427 13.4066C14.8284 13.0475 14.8028 12.6708 14.6694 12.3266L11.236 2.41995C11.1456 2.13934 10.9877 1.88523 10.776 1.67995C10.6918 1.58924 10.5953 1.51071 10.4894 1.44662C10.2294 1.27242 9.93119 1.16369 9.62012 1.1297C9.30905 1.09572 8.99437 1.13748 8.70294 1.25144C8.4115 1.36539 8.15196 1.54815 7.94644 1.78413C7.74093 2.02011 7.59555 2.30229 7.52271 2.60662L6.88937 6.47995C6.83803 6.60768 6.76086 6.72343 6.66271 6.81995C6.55932 6.92722 6.4311 7.00736 6.28938 7.05329L2.66938 7.67329C2.25913 7.77579 1.89381 8.00998 1.62937 8.33995C1.37609 8.6604 1.22925 9.05198 1.20937 9.45995C1.19278 9.86632 1.30475 10.2676 1.52937 10.6066C1.75784 10.9484 2.08607 11.2114 2.46937 11.36L12.196 14.8C12.5406 14.9218 12.9124 14.9449 13.2694 14.8666C13.6288 14.7917 13.9595 14.6159 14.2227 14.36Z" fill="currentColor"/>
</svg>
