<svg viewBox="0 0 16 16" fill="none" xmlns="http://www.w3.org/2000/svg">
<g id="direction=north">
<path id="Vector" d="M7.92198 14.6826C8.29107 14.6836 8.65246 14.577 8.96198 14.3759C9.27483 14.1812 9.52303 13.8982 9.67531 13.5626L14.2486 4.12928C14.3806 3.86661 14.4486 3.57661 14.4486 3.28261C14.4486 3.15861 14.4353 3.03639 14.4086 2.91594C14.3313 2.50412 14.1204 2.12924 13.8086 1.84928C13.4972 1.5673 13.1026 1.39404 12.6842 1.35557C12.2659 1.3171 11.8463 1.41549 11.4886 1.63594L8.30198 3.92928C8.17531 3.98261 8.03931 4.00928 7.90198 4.00928C7.75383 4.01028 7.60758 3.976 7.47531 3.90928L4.47531 1.78928C4.11098 1.57023 3.68407 1.47875 3.26198 1.52928C2.85667 1.57484 2.47627 1.74785 2.17557 2.0234C1.87486 2.29895 1.66936 2.66282 1.58864 3.06261C1.50981 3.46465 1.55635 3.88121 1.72198 4.25594L6.16864 13.5893C6.32945 13.9172 6.57898 14.1935 6.88891 14.3868C7.19883 14.58 7.55673 14.6825 7.92198 14.6826Z" fill="currentColor"/>
</g>
</svg>
