<svg viewBox="0 0 16 16" fill="none" xmlns="http://www.w3.org/2000/svg">
<g id="direction=south">
<path id="Vector" d="M7.92198 1.31739C8.29107 1.31643 8.65246 1.42299 8.96198 1.62406C9.27483 1.81881 9.52303 2.10181 9.67531 2.43739L14.2486 11.8707C14.3806 12.1334 14.4486 12.4234 14.4486 12.7174C14.4486 12.8414 14.4353 12.9636 14.4086 13.0841C14.3313 13.4959 14.1204 13.8708 13.8086 14.1507C13.4972 14.4327 13.1026 14.606 12.6842 14.6444C12.2659 14.6829 11.8463 14.5845 11.4886 14.3641L8.30198 12.0707C8.17531 12.0174 8.03931 11.9907 7.90198 11.9907C7.75383 11.9897 7.60758 12.024 7.47531 12.0907L4.47531 14.2107C4.11098 14.4298 3.68407 14.5213 3.26198 14.4707C2.85667 14.4252 2.47627 14.2521 2.17557 13.9766C1.87486 13.7011 1.66936 13.3372 1.58864 12.9374C1.50981 12.5353 1.55635 12.1188 1.72198 11.7441L6.16864 2.41072C6.32945 2.08278 6.57898 1.8065 6.88891 1.61324C7.19883 1.41998 7.55673 1.31748 7.92198 1.31739Z" fill="currentColor"/>
</g>
</svg>
