<svg viewBox="0 0 16 16" fill="none" xmlns="http://www.w3.org/2000/svg">
<path d="M1.33216 7.90672C1.3312 8.27581 1.43776 8.6372 1.63883 8.94672C1.83358 9.25957 2.11658 9.50777 2.45216 9.66005L11.8855 14.2334C12.148 14.3658 12.4381 14.4343 12.7322 14.4334C12.8557 14.4334 12.9779 14.4201 13.0988 14.3934C13.5107 14.316 13.8855 14.1052 14.1655 13.7934C14.4475 13.4819 14.6207 13.0873 14.6592 12.669C14.6977 12.2506 14.5993 11.831 14.3788 11.4734L12.0855 8.28672C12.0322 8.16005 12.0055 8.02405 12.0055 7.88672C12.0045 7.73857 12.0388 7.59232 12.1055 7.46005L14.2255 4.46005C14.4445 4.09572 14.536 3.66882 14.4855 3.24672C14.4399 2.84141 14.2669 2.46102 13.9914 2.16031C13.7158 1.8596 13.352 1.6541 12.9522 1.57338C12.5501 1.49455 12.1336 1.54109 11.7588 1.70672L2.42549 6.15338C2.09755 6.31419 1.82127 6.56372 1.62801 6.87365C1.43475 7.18357 1.33225 7.54147 1.33216 7.90672Z" fill="currentColor"/>
</svg>
