<svg viewBox="0 0 16 16" fill="none" xmlns="http://www.w3.org/2000/svg">
<path d="M1.77743 14.36C1.51277 14.1013 1.33076 13.7693 1.25743 13.4067C1.17177 13.0476 1.19735 12.6709 1.33077 12.3267L4.7641 2.42001C4.85452 2.1394 5.01248 1.88529 5.2241 1.68001C5.30836 1.5893 5.40484 1.51077 5.51077 1.44668C5.77072 1.27248 6.06895 1.16375 6.38002 1.12976C6.69109 1.09578 7.00577 1.13754 7.2972 1.2515C7.58864 1.36545 7.84818 1.54821 8.0537 1.78419C8.25921 2.02017 8.40459 2.30235 8.47743 2.60668L9.11077 6.48001C9.16211 6.60774 9.23928 6.72349 9.33743 6.82001C9.44082 6.92728 9.56904 7.00742 9.71077 7.05335L13.3308 7.67335C13.741 7.77585 14.1063 8.01004 14.3708 8.34001C14.624 8.66046 14.7709 9.05204 14.7908 9.46001C14.8074 9.86638 14.6954 10.2676 14.4708 10.6067C14.2423 10.9484 13.9141 11.2115 13.5308 11.36L3.8041 14.8C3.45953 14.9219 3.08776 14.945 2.73077 14.8667C2.37132 14.7917 2.04065 14.616 1.77743 14.36Z" fill="currentColor"/>
</svg>
