<svg viewBox="0 0 16 16" fill="none" xmlns="http://www.w3.org/2000/svg">
<path d="M14.6673 7.90672C14.6683 8.27581 14.5617 8.6372 14.3607 8.94672C14.1659 9.25957 13.8829 9.50777 13.5473 9.66005L4.11401 14.2334C3.85148 14.3658 3.56138 14.4343 3.26734 14.4334C3.14379 14.4334 3.02157 14.4201 2.90068 14.3934C2.48885 14.316 2.11397 14.1052 1.83401 13.7934C1.55203 13.4819 1.37878 13.0873 1.34031 12.669C1.30183 12.2506 1.40022 11.831 1.62068 11.4734L3.91401 8.28672C3.96734 8.16005 3.99401 8.02405 3.99401 7.88672C3.99501 7.73857 3.96073 7.59232 3.89401 7.46005L1.77401 4.46005C1.55496 4.09572 1.46348 3.66882 1.51401 3.24672C1.55957 2.84141 1.73258 2.46102 2.00813 2.16031C2.28368 1.8596 2.64755 1.6541 3.04734 1.57338C3.44939 1.49455 3.86595 1.54109 4.24068 1.70672L13.574 6.15338C13.9019 6.31419 14.1782 6.56372 14.3715 6.87365C14.5648 7.18357 14.6673 7.54147 14.6673 7.90672Z" fill="currentColor"/>
</svg>
